<svg id="Слой_1" data-name="Слой 1" xmlns="http://www.w3.org/2000/svg" viewBox="0 0 48.93 11.09"><defs><style>.cls-1,.cls-2{fill:#fff;}.cls-1,.cls-3,.cls-4{fill-rule:evenodd;}.cls-3{fill:#e31837;}.cls-4{fill:#006491;}</style></defs><title>Векторный смарт-объект1</title><path class="cls-1" d="M15.14,4.73H12.57a.15.15,0,0,0-.15.15v5.77a.15.15,0,0,0,.15.15h2.57c2,0,3.33-1.19,3.33-3s-1.31-3-3.33-3Zm0,4.47h-.88V6.33h.88A1.33,1.33,0,0,1,16.6,7.76,1.41,1.41,0,0,1,15.14,9.2Z" transform="translate(-0.03 -0.01)"/><path class="cls-1" d="M29.83,6.3a1.9,1.9,0,0,0-1.54.77A1.2,1.2,0,0,0,27,6.3a2,2,0,0,0-1.46.61V6.56a.15.15,0,0,0-.15-.15H24.08a.15.15,0,0,0-.15.15v4.09a.15.15,0,0,0,.15.15h1.33a.15.15,0,0,0,.15-.15V8.09a.85.85,0,0,1,.67-.34.45.45,0,0,1,.5.49v2.42a.15.15,0,0,0,.15.15h1.33a.15.15,0,0,0,.15-.15V8.09A.85.85,0,0,1,29,7.74a.45.45,0,0,1,.5.49v2.42a.15.15,0,0,0,.15.15H31a.15.15,0,0,0,.15-.15v-3A1.21,1.21,0,0,0,29.83,6.3Z" transform="translate(-0.03 -0.01)"/><rect class="cls-2" x="31.83" y="6.4" width="1.64" height="4.4" rx="0.15" ry="0.15"/><circle class="cls-2" cx="32.69" cy="5.16" r="0.92"/><path class="cls-1" d="M37.35,6.3a1.93,1.93,0,0,0-1.51.61V6.56a.15.15,0,0,0-.15-.15H34.35a.15.15,0,0,0-.15.15v4.09a.15.15,0,0,0,.15.15h1.33a.15.15,0,0,0,.15-.15V8.09a.88.88,0,0,1,.7-.35.56.56,0,0,1,.64.63v2.28a.15.15,0,0,0,.15.15h1.33a.15.15,0,0,0,.15-.15v-3A1.31,1.31,0,0,0,37.35,6.3Z" transform="translate(-0.03 -0.01)"/><path class="cls-1" d="M21.11,6.27A2.32,2.32,0,1,0,23.44,8.6a2.32,2.32,0,0,0-2.32-2.32Zm0,3.08a.79.79,0,1,1,.79-.79A.79.79,0,0,1,21.11,9.36Z" transform="translate(-0.03 -0.01)"/><path class="cls-1" d="M41.62,6.28A2.32,2.32,0,1,0,43.95,8.6a2.32,2.32,0,0,0-2.32-2.32Zm0,3.08a.79.79,0,1,1,.79-.79A.79.79,0,0,1,41.62,9.36Z" transform="translate(-0.03 -0.01)"/><path class="cls-1" d="M45.2,5h0a.94.94,0,0,0-1.09-.69.89.89,0,0,0-.73,1,.87.87,0,0,0,.82.67.57.57,0,0,1-.28.36.09.09,0,0,0,0,.13l.1.15a.1.1,0,0,0,.13.05A1.55,1.55,0,0,0,45.2,5Z" transform="translate(-0.03 -0.01)"/><path class="cls-1" d="M46.41,7.71c0-.16.21-.24.48-.24a1.91,1.91,0,0,1,1.17.37.15.15,0,0,0,.12,0,.15.15,0,0,0,.1-.07L48.72,7a.15.15,0,0,0-.05-.21,3.33,3.33,0,0,0-1.85-.51c-1.36,0-2.08.64-2,1.56.21,1.61,2.72,1.06,2.68,1.61,0,.13-.23.22-.62.22a3,3,0,0,1-1.42-.47.15.15,0,0,0-.21.05l-.52.87a.15.15,0,0,0,0,.2,3.89,3.89,0,0,0,2,.56c1.36,0,2.14-.58,2.14-1.54C49,7.6,46.42,8.15,46.41,7.71Z" transform="translate(-0.03 -0.01)"/><path class="cls-1" d="M10.93,3.21l-3-3a.67.67,0,0,0-1,0L4.43,2.73.23,6.93a.67.67,0,0,0,0,1l3,3a.67.67,0,0,0,1,0L8,7.13l3-3A.67.67,0,0,0,10.93,3.21Z" transform="translate(-0.03 -0.01)"/><path class="cls-3" d="M10.71,3.43l-3-3a.37.37,0,0,0-.53,0L3.92,3.67,7.46,7.21,10.71,4a.37.37,0,0,0,0-.53ZM8.06,4.3a.87.87,0,1,1,.26-.62A.87.87,0,0,1,8.06,4.3Z" transform="translate(-0.03 -0.01)"/><path class="cls-4" d="M.44,7.15a.37.37,0,0,0,0,.53l3,3a.37.37,0,0,0,.53,0L7.24,7.43,3.7,3.89.44,7.15ZM3.05,8a.87.87,0,1,1,.26-.62A.87.87,0,0,1,3.05,8Zm1.33-1.2a.87.87,0,1,1-.26.62A.87.87,0,0,1,4.38,6.81Z" transform="translate(-0.03 -0.01)"/></svg>